<svg xmlns="http://www.w3.org/2000/svg" version="1.1" xmlns:xlink="http://www.w3.org/1999/xlink" xmlns:svgjs="http://svgjs.com/svgjs" width="1440" height="560" preserveAspectRatio="none" viewBox="0 0 1440 560"><g mask="url(&quot;#SvgjsMask1151&quot;)" fill="none"><rect width="1440" height="560" x="0" y="0" fill="url(#SvgjsLinearGradient1152)"></rect><path d="M1040 65L1039 -91" stroke-width="6" stroke="url(#SvgjsLinearGradient1153)" stroke-linecap="round" class="Down"></path><path d="M465 303L464 -63" stroke-width="6" stroke="url(#SvgjsLinearGradient1153)" stroke-linecap="round" class="Down"></path><path d="M259 494L258 794" stroke-width="10" stroke="url(#SvgjsLinearGradient1154)" stroke-linecap="round" class="Up"></path><path d="M117 111L116 278" stroke-width="10" stroke="url(#SvgjsLinearGradient1154)" stroke-linecap="round" class="Up"></path><path d="M518 135L517 -9" stroke-width="8" stroke="url(#SvgjsLinearGradient1153)" stroke-linecap="round" class="Down"></path><path d="M389 150L388 311" stroke-width="8" stroke="url(#SvgjsLinearGradient1153)" stroke-linecap="round" class="Down"></path><path d="M329 392L328 -22" stroke-width="6" stroke="url(#SvgjsLinearGradient1153)" stroke-linecap="round" class="Down"></path><path d="M882 144L881 -107" stroke-width="6" stroke="url(#SvgjsLinearGradient1154)" stroke-linecap="round" class="Up"></path><path d="M268 376L267 140" stroke-width="8" stroke="url(#SvgjsLinearGradient1154)" stroke-linecap="round" class="Up"></path><path d="M324 161L323 11" stroke-width="6" stroke="url(#SvgjsLinearGradient1154)" stroke-linecap="round" class="Up"></path><path d="M961 82L960 413" stroke-width="8" stroke="url(#SvgjsLinearGradient1153)" stroke-linecap="round" class="Down"></path><path d="M311 454L310 815" stroke-width="8" stroke="url(#SvgjsLinearGradient1153)" stroke-linecap="round" class="Down"></path><path d="M334 384L333 -12" stroke-width="6" stroke="url(#SvgjsLinearGradient1153)" stroke-linecap="round" class="Down"></path><path d="M942 348L941 691" stroke-width="6" stroke="url(#SvgjsLinearGradient1154)" stroke-linecap="round" class="Up"></path><path d="M314 305L313 527" stroke-width="10" stroke="url(#SvgjsLinearGradient1153)" stroke-linecap="round" class="Down"></path><path d="M293 349L292 184" stroke-width="6" stroke="url(#SvgjsLinearGradient1153)" stroke-linecap="round" class="Down"></path><path d="M626 420L625 566" stroke-width="8" stroke="url(#SvgjsLinearGradient1154)" stroke-linecap="round" class="Up"></path><path d="M256 283L255 -62" stroke-width="10" stroke="url(#SvgjsLinearGradient1154)" stroke-linecap="round" class="Up"></path><path d="M956 482L955 763" stroke-width="10" stroke="url(#SvgjsLinearGradient1153)" stroke-linecap="round" class="Down"></path><path d="M1334 137L1333 -155" stroke-width="8" stroke="url(#SvgjsLinearGradient1153)" stroke-linecap="round" class="Down"></path><path d="M191 314L190 -7" stroke-width="10" stroke="url(#SvgjsLinearGradient1154)" stroke-linecap="round" class="Up"></path><path d="M577 557L576 918" stroke-width="10" stroke="url(#SvgjsLinearGradient1154)" stroke-linecap="round" class="Up"></path><path d="M164 90L163 322" stroke-width="8" stroke="url(#SvgjsLinearGradient1154)" stroke-linecap="round" class="Up"></path><path d="M693 294L692 618" stroke-width="8" stroke="url(#SvgjsLinearGradient1154)" stroke-linecap="round" class="Up"></path><path d="M37 319L36 536" stroke-width="8" stroke="url(#SvgjsLinearGradient1154)" stroke-linecap="round" class="Up"></path><path d="M1054 277L1053 38" stroke-width="8" stroke="url(#SvgjsLinearGradient1153)" stroke-linecap="round" class="Down"></path><path d="M1380 516L1379 907" stroke-width="6" stroke="url(#SvgjsLinearGradient1153)" stroke-linecap="round" class="Down"></path><path d="M1086 503L1085 793" stroke-width="6" stroke="url(#SvgjsLinearGradient1154)" stroke-linecap="round" class="Up"></path><path d="M228 332L227 692" stroke-width="8" stroke="url(#SvgjsLinearGradient1153)" stroke-linecap="round" class="Down"></path><path d="M977 492L976 199" stroke-width="10" stroke="url(#SvgjsLinearGradient1154)" stroke-linecap="round" class="Up"></path><path d="M261 400L260 800" stroke-width="10" stroke="url(#SvgjsLinearGradient1153)" stroke-linecap="round" class="Down"></path><path d="M1049 351L1048 208" stroke-width="10" stroke="url(#SvgjsLinearGradient1154)" stroke-linecap="round" class="Up"></path><path d="M672 431L671 241" stroke-width="6" stroke="url(#SvgjsLinearGradient1154)" stroke-linecap="round" class="Up"></path><path d="M1388 317L1387 515" stroke-width="10" stroke="url(#SvgjsLinearGradient1153)" stroke-linecap="round" class="Down"></path><path d="M580 71L579 -252" stroke-width="10" stroke="url(#SvgjsLinearGradient1154)" stroke-linecap="round" class="Up"></path><path d="M294 243L293 -128" stroke-width="10" stroke="url(#SvgjsLinearGradient1153)" stroke-linecap="round" class="Down"></path></g><defs><mask id="SvgjsMask1151"><rect width="1440" height="560" fill="#ffffff"></rect></mask><linearGradient x1="15.28%" y1="-39.29%" x2="84.72%" y2="139.29%" gradientUnits="userSpaceOnUse" id="SvgjsLinearGradient1152"><stop stop-color="#0e2a47" offset="0"></stop><stop stop-color="rgba(0, 0, 0, 1)" offset="1"></stop></linearGradient><linearGradient x1="0%" y1="0%" x2="0%" y2="100%" id="SvgjsLinearGradient1153"><stop stop-color="rgba(28, 83, 142, 0)" offset="0"></stop><stop stop-color="#1c538e" offset="1"></stop></linearGradient><linearGradient x1="0%" y1="100%" x2="0%" y2="0%" id="SvgjsLinearGradient1154"><stop stop-color="rgba(28, 83, 142, 0)" offset="0"></stop><stop stop-color="#1c538e" offset="1"></stop></linearGradient></defs></svg>